#!OML:ASF F:\VICON\USERDATA\INSTALL\rory3\rory3.ASF
:FULLY-SPECIFIED
:DEGREES
21
root 4.486001962862861 17.89169502394941 -1.421582312495854 -1.5481688325794856 1.2194307116604404 2.9455781310123963
lfemur 12.363096406301228 -4.067360186077035 -26.89435412015304
ltibia 17.688060719584687
lfoot -15.81487972110332 -1.2707624213761277
ltoes -13.827914383903572
rfemur -29.55374631171452 4.946470687351162 18.415994128610684
rtibia 25.827150679855816
rfoot -7.823001780333721 -9.433920487210186
rtoes -6.430734761643318
lowerback nan -1.1388084533857796 -4.60935451988033
upperback 0.5274276818699923 -2.1996124119884777 1.305115602963597
thorax -5.197757517093423 -1.0437234480103537 4.141849732034298
lowerneck -16.77283638814067 -3.1636475332643124 -2.439467729238556
upperneck 20.380073818120376 -3.8166933279048187 -0.13915289161401578
head 9.62167557600607 -1.9314166652034177 -0.45045297658853883
lclavicle -1.9338729011904955e-15 -1.587629706730053e-15
lhumerus -24.86482968066323 -5.357186934783509 82.8739765671429
lradius 33.38473679785384
lwrist 7.99317894847585
lhand -25.715827922164248 28.51958892762729
lfingers nan
lthumb 1.0698918817941785 59.11762222055316
rclavicle -1.2457317112880473e-15 -1.5077387154674468e-15
rhumerus -34.12479576193476 -22.89968945569937 -76.01459310007179
rradius 25.05122219312736
rwrist 4.634695626744689
rhand -18.7392566181159 nan
rfingers nan
rthumb 7.915708506922539 -6.354214888639966
22
root 4.418554006782026 17.91403044541822 -0.6819894135698856 -1.6661984063706698 1.3697879666571047 1.89739826765519
lfemur 14.421733690335191 -6.00448237502909 -26.2553578095777
ltibia 20.37381663611206
lfoot -12.380525900980636 -3.495574247212973
ltoes -17.387167381445064
rfemur -28.160977381203445 5.822764590241405 19.168583798722086
rtibia 31.931672126805708
rfoot -8.746437859867708 -7.211139494575655
rtoes -9.474368718971121
lowerback nan -1.256471312519644 -4.0813039981534045
upperback 0.4892463698946967 -2.2263819907465656 1.4404726859904498
thorax -5.091133142552582 -1.0421882816141395 4.28628059242448
lowerneck -16.898673511753458 -3.064068867335357 -2.2576461434593265
upperneck 21.221186680549362 -3.751187636022565 0.07160062078294693
head 9.987201978253559 -1.8836326943553063 -0.4135176969071501
lclavicle 7.156764592804366e-16 -7.679313072227998e-16
lhumerus -25.658969756275376 -5.494271138166544 83.01494447832648
lradius 33.27097023965324
lwrist 8.34512230550741
lhand -24.20108672854591 29.742287742277718
lfingers nan
lthumb 1.878973772283816 58.782079147317624
rclavicle 1.4242669827300148e-15 -5.90278518880214e-16
rhumerus -35.09538472101881 -23.66050269043418 -74.96096640235444
rradius 24.074331294983082
rwrist 5.515470415081264
rhand -18.67481545441857 nan
rfingers nan
rthumb 8.122871820567608 -6.173884385264791
23
root 4.375876845386208 17.96272935977168 -0.47370295076255076 -1.8072461226323067 0.7846226833525551 0.9575479877374748
lfemur 13.66836395993522 -6.235760460337815 -23.938201056403773
ltibia 26.891290972754632
lfoot -6.028988870497235 -6.8405214737260565
ltoes -20.7294931230508
rfemur -26.846909676353413 6.841480099688986 21.482155018364388
rtibia 34.13537746324787
rfoot -5.10131430343124 -4.581374603333861
rtoes -4.472787566126339
lowerback nan -1.2163200951825581 -2.1663502260898886
upperback 0.29575071957230237 -2.1468709841778932 1.7915356369405862
thorax -4.961374733811292 -0.9391148463561284 3.8758313107548568
lowerneck -16.993786425319986 -3.0182187791808928 -2.302323209080143
upperneck 21.86905735331409 -3.3770527893607034 -0.16509228463994008
head 9.968806760354015 -1.805079833744498 -0.42916217484166064
lclavicle 1.003242939246999e-15 -1.3789226891186791e-15
lhumerus -25.85165636027731 -4.836940913002901 83.31157604493396
lradius 33.124946462272895
lwrist 8.624534250772667
lhand -26.863161012354308 22.877362960962547
lfingers nan
lthumb 0.0712060350155819 53.605541203746135
rclavicle -5.679953199472254e-16 -1.798020161209868e-15
rhumerus -34.51176716416724 -24.3424102452776 -74.52777819604336
rradius 22.848390145008903
rwrist 8.130489412492393
rhand -18.55237056647702 nan
rfingers nan
rthumb 8.412388728405741 -5.947311561068965
24
root 4.318726841491231 18.05014004887243 -1.7744693980627275 -1.8687755376919646 0.8789595801011609 -0.07040789169348205
lfemur 10.758353873915908 -4.373963220743122 -22.439413439486373
ltibia 34.88354910956134
lfoot 1.775821072731258 -11.722935426257184
ltoes -10.684913381430086
rfemur -24.46462429711783 6.239116531541145 23.01907507004005
rtibia 37.976089610237345
rfoot -4.187548807378308 -3.0655025221972534
rtoes 0.6514112092152242
lowerback nan -1.0693844129461718 -1.488771447361654
upperback 0.2847580161623121 -1.826530197623589 1.8710360360122302
thorax -5.1163785804893 -0.8286350815968023 3.048509834798908
lowerneck -17.387631140205226 -2.917091570255758 -2.2018144547601795
upperneck 21.75664435357879 -3.3365611876807133 -0.31376510678206937
head 10.274421438509814 -1.8209371047438294 -0.37154614001989816
lclavicle 3.237788822030823e-15 -6.907435634147622e-16
lhumerus -26.940941227076614 -4.435557116043007 83.49648774373546
lradius 33.14670568590158
lwrist 7.657850244390653
lhand -26.16072182766031 27.163908656352408
lfingers nan
lthumb 0.5062241225353411 56.70821957021358
rclavicle 3.9334706451952135e-16 -2.6764955762688875e-15
rhumerus -33.46039339485854 -23.80068348910804 -74.97350171057384
rradius 22.156704146632332
rwrist 9.5201793370624
rhand -18.426679801114876 nan
rfingers nan
rthumb 8.42153691533478 -5.550086163401855
25
root 4.268738409481962 18.097195431930526 -2.1458013238656974 -2.1265643031052623 0.6781763256724278 -1.2348057966743584
lfemur 3.265075920695267 -3.136339649418945 -19.083443204025368
ltibia 41.64501070975984
lfoot 10.043743100198336 -15.982373789524324
ltoes -5.795974936028735
rfemur -21.13000522965765 6.624579635501918 25.684886809632733
rtibia 41.65089849369494
rfoot -2.471775250441172 -2.6764692816638824
rtoes 4.531474681996371
lowerback nan -0.9655190112317307 0.48996813665120337
upperback 0.16387509818936397 -1.5274233897554836 2.180434439939919
thorax -5.5019221038401565 -0.7186525695979141 2.230975574462362
lowerneck -16.585510706006747 -2.9393219287046235 -2.0130211895312735
upperneck 22.12014874237392 -3.626374668470821 -0.3388700300291787
head 10.446202627117538 -1.96896135637852 -0.4368031738068747
lclavicle 2.5987539002756895e-15 -5.323124740928387e-16
lhumerus -28.069126082485393 -3.7244854759570076 83.81123599967347
lradius 32.9370998796032
lwrist 8.420900169461685
lhand -25.752385965762333 27.799033142918148
lfingers nan
lthumb 0.6294027092955795 57.82388752385598
rclavicle 6.596437022210952e-15 3.573417812037246e-15
rhumerus -31.33491583254236 -21.27242927849672 -76.74247526609669
rradius 22.28570301110515
rwrist 8.99336837363011
rhand -17.877877008951046 nan
rfingers nan
rthumb 8.241785983099406 -6.420150100239438
26
root 4.219764270311463 18.131001631407553 -2.017910317740192 -2.4697110667565703 0.2575228310432327 -2.2207398683110835
lfemur -1.8983904230237627 -2.3639037052741654 -16.00588999368831
ltibia 52.55111040800952
lfoot 11.714724301871046 -17.73512257171408
ltoes -9.126650259718268
rfemur -16.95938205855046 7.3426291932476975 28.115172465852496
rtibia 40.74871249056998
rfoot -3.8998762769933975 -3.63958778417413
rtoes 5.665889481405406
lowerback nan -0.6375905919047298 1.9793921004762212
upperback 0.22888239954838863 -0.9668614239068821 2.4484211935987577
thorax -5.6740138698695475 -0.4884054426323029 1.905594117603181
lowerneck -16.559913308026097 -3.100038674996895 -2.0027089630716617
upperneck 21.605425094174404 -3.769588577581129 -0.20985457063964474
head 10.486566686467775 -2.020208417700346 -0.3274626000727326
lclavicle 3.8805064842844356e-15 4.3565061400396527e-16
lhumerus -29.40182340302154 -2.7499727354202657 83.89623638532578
lradius 31.840098785881292
lwrist 7.140591049333456
lhand -25.76073589061792 27.85667531305002
lfingers nan
lthumb 0.4226088858281155 56.810771395879215
rclavicle 8.594816799651878e-16 -8.011439086991809e-16
rhumerus -29.32614193756889 -19.47175306780619 -78.23794669382364
rradius 22.77189482188858
rwrist 7.977507091117477
rhand -17.70552382686993 nan
rfingers nan
rthumb 8.308534637579648 -6.8309035629463
27
root 4.190474632291553 18.15509540381096 -1.8856157799814017 -2.7585310579113624 -0.06006675306649889 -2.7164582352422704
lfemur -7.676594171554217 -1.2032150544126277 -14.34071042042065
ltibia 59.65401571356196
lfoot 3.7598239953183707 -14.443691727559452
ltoes -3.119859564622546
rfemur -13.336307917286087 7.436534004214192 29.499132295457553
rtibia 39.73741394319485
rfoot -5.919996163358313 -3.802631049136219
rtoes 6.55765906389626
lowerback nan -0.2629352722184811 2.709373362297722
upperback 0.1671998163385663 -0.5637904787396527 2.5215976849833712
thorax -5.533374583787306 -0.2724971997171516 1.4601174579123093
lowerneck -16.30632970115581 -3.1349105044363843 -1.9496213262775615
upperneck 22.117230999406118 -3.8259535029836687 -0.08262994597159778
head 10.31689681314381 -2.0183729798388734 -0.29277304162384665
lclavicle 1.8420602807415385e-15 1.6252055620568775e-15
lhumerus -30.64985562446511 -1.315403038452072 83.96486660636256
lradius 30.19658677727064
lwrist 6.283677713873296
lhand -26.815566752080084 23.093568724239542
lfingers nan
lthumb -0.7376938208291969 52.32479963603568
rclavicle 1.576794753610241e-16 -3.9433143288974637e-16
rhumerus -27.628897412878263 -17.71972377633549 -79.12967616326196
rradius 22.79668870302375
rwrist 8.724331629937753
rhand -17.541862013787945 nan
rfingers nan
rthumb 7.99880152330287 -7.762455379797401
